<mxfile host="app.diagrams.net" agent="Mozilla/5.0 (Windows NT 10.0; Win64; x64) AppleWebKit/537.36 (KHTML, like Gecko) Chrome/130.0.0.0 Safari/537.36" version="24.8.3">
  <diagram id="C5RBs43oDa-KdzZeNtuy" name="Page-1">
    <mxGraphModel dx="880" dy="434" grid="1" gridSize="10" guides="1" tooltips="1" connect="1" arrows="1" fold="1" page="1" pageScale="1" pageWidth="827" pageHeight="1169" math="0" shadow="0">
      <root>
        <mxCell id="WIyWlLk6GJQsqaUBKTNV-0" />
        <mxCell id="WIyWlLk6GJQsqaUBKTNV-1" parent="WIyWlLk6GJQsqaUBKTNV-0" />
        <mxCell id="jJn-nuzKVyp3T1TOPXJk-22" value="" style="edgeStyle=orthogonalEdgeStyle;rounded=0;orthogonalLoop=1;jettySize=auto;html=1;strokeWidth=2;" edge="1" parent="WIyWlLk6GJQsqaUBKTNV-1" source="jJn-nuzKVyp3T1TOPXJk-0" target="jJn-nuzKVyp3T1TOPXJk-2">
          <mxGeometry relative="1" as="geometry" />
        </mxCell>
        <mxCell id="jJn-nuzKVyp3T1TOPXJk-0" value="" style="rounded=0;whiteSpace=wrap;html=1;strokeWidth=2;" vertex="1" parent="WIyWlLk6GJQsqaUBKTNV-1">
          <mxGeometry x="320" y="10" width="206" height="40" as="geometry" />
        </mxCell>
        <mxCell id="jJn-nuzKVyp3T1TOPXJk-1" value="" style="rounded=0;whiteSpace=wrap;html=1;strokeWidth=2;" vertex="1" parent="WIyWlLk6GJQsqaUBKTNV-1">
          <mxGeometry x="320" y="890" width="206" height="40" as="geometry" />
        </mxCell>
        <mxCell id="jJn-nuzKVyp3T1TOPXJk-19" value="" style="edgeStyle=orthogonalEdgeStyle;rounded=0;orthogonalLoop=1;jettySize=auto;html=1;entryX=0.5;entryY=0;entryDx=0;entryDy=0;strokeWidth=2;" edge="1" parent="WIyWlLk6GJQsqaUBKTNV-1" source="jJn-nuzKVyp3T1TOPXJk-2" target="jJn-nuzKVyp3T1TOPXJk-5">
          <mxGeometry relative="1" as="geometry" />
        </mxCell>
        <mxCell id="jJn-nuzKVyp3T1TOPXJk-2" value="" style="rounded=0;whiteSpace=wrap;html=1;strokeWidth=2;" vertex="1" parent="WIyWlLk6GJQsqaUBKTNV-1">
          <mxGeometry x="320" y="90" width="206" height="40" as="geometry" />
        </mxCell>
        <mxCell id="jJn-nuzKVyp3T1TOPXJk-9" value="" style="edgeStyle=orthogonalEdgeStyle;rounded=0;orthogonalLoop=1;jettySize=auto;html=1;strokeWidth=2;" edge="1" parent="WIyWlLk6GJQsqaUBKTNV-1" source="jJn-nuzKVyp3T1TOPXJk-3" target="jJn-nuzKVyp3T1TOPXJk-1">
          <mxGeometry relative="1" as="geometry" />
        </mxCell>
        <mxCell id="jJn-nuzKVyp3T1TOPXJk-3" value="" style="rounded=0;whiteSpace=wrap;html=1;strokeWidth=2;" vertex="1" parent="WIyWlLk6GJQsqaUBKTNV-1">
          <mxGeometry x="320" y="800" width="206" height="40" as="geometry" />
        </mxCell>
        <mxCell id="jJn-nuzKVyp3T1TOPXJk-28" style="edgeStyle=orthogonalEdgeStyle;rounded=0;orthogonalLoop=1;jettySize=auto;html=1;entryX=0.667;entryY=0.022;entryDx=0;entryDy=0;entryPerimeter=0;strokeWidth=2;" edge="1" parent="WIyWlLk6GJQsqaUBKTNV-1" source="jJn-nuzKVyp3T1TOPXJk-4" target="jJn-nuzKVyp3T1TOPXJk-27">
          <mxGeometry relative="1" as="geometry">
            <mxPoint x="550" y="520" as="targetPoint" />
          </mxGeometry>
        </mxCell>
        <mxCell id="jJn-nuzKVyp3T1TOPXJk-4" value="" style="rounded=0;whiteSpace=wrap;html=1;strokeWidth=2;" vertex="1" parent="WIyWlLk6GJQsqaUBKTNV-1">
          <mxGeometry x="320" y="450" width="206" height="40" as="geometry" />
        </mxCell>
        <mxCell id="jJn-nuzKVyp3T1TOPXJk-23" value="" style="edgeStyle=orthogonalEdgeStyle;rounded=0;orthogonalLoop=1;jettySize=auto;html=1;strokeWidth=2;" edge="1" parent="WIyWlLk6GJQsqaUBKTNV-1" source="jJn-nuzKVyp3T1TOPXJk-5" target="jJn-nuzKVyp3T1TOPXJk-6">
          <mxGeometry relative="1" as="geometry" />
        </mxCell>
        <mxCell id="jJn-nuzKVyp3T1TOPXJk-5" value="" style="rounded=0;whiteSpace=wrap;html=1;strokeWidth=2;" vertex="1" parent="WIyWlLk6GJQsqaUBKTNV-1">
          <mxGeometry x="320" y="170" width="206" height="40" as="geometry" />
        </mxCell>
        <mxCell id="jJn-nuzKVyp3T1TOPXJk-24" value="" style="edgeStyle=orthogonalEdgeStyle;rounded=0;orthogonalLoop=1;jettySize=auto;html=1;strokeWidth=2;" edge="1" parent="WIyWlLk6GJQsqaUBKTNV-1" source="jJn-nuzKVyp3T1TOPXJk-6" target="jJn-nuzKVyp3T1TOPXJk-7">
          <mxGeometry relative="1" as="geometry" />
        </mxCell>
        <mxCell id="jJn-nuzKVyp3T1TOPXJk-6" value="" style="rounded=0;whiteSpace=wrap;html=1;strokeWidth=2;" vertex="1" parent="WIyWlLk6GJQsqaUBKTNV-1">
          <mxGeometry x="320" y="260" width="206" height="40" as="geometry" />
        </mxCell>
        <mxCell id="jJn-nuzKVyp3T1TOPXJk-25" value="" style="edgeStyle=orthogonalEdgeStyle;rounded=0;orthogonalLoop=1;jettySize=auto;html=1;strokeWidth=2;" edge="1" parent="WIyWlLk6GJQsqaUBKTNV-1" source="jJn-nuzKVyp3T1TOPXJk-7" target="jJn-nuzKVyp3T1TOPXJk-4">
          <mxGeometry relative="1" as="geometry" />
        </mxCell>
        <mxCell id="jJn-nuzKVyp3T1TOPXJk-7" value="" style="rounded=0;whiteSpace=wrap;html=1;strokeWidth=2;" vertex="1" parent="WIyWlLk6GJQsqaUBKTNV-1">
          <mxGeometry x="320" y="350" width="206" height="40" as="geometry" />
        </mxCell>
        <mxCell id="jJn-nuzKVyp3T1TOPXJk-10" value="" style="edgeStyle=orthogonalEdgeStyle;rounded=0;orthogonalLoop=1;jettySize=auto;html=1;strokeWidth=2;" edge="1" parent="WIyWlLk6GJQsqaUBKTNV-1" source="jJn-nuzKVyp3T1TOPXJk-8" target="jJn-nuzKVyp3T1TOPXJk-3">
          <mxGeometry relative="1" as="geometry" />
        </mxCell>
        <mxCell id="jJn-nuzKVyp3T1TOPXJk-8" value="" style="rounded=0;whiteSpace=wrap;html=1;strokeWidth=2;" vertex="1" parent="WIyWlLk6GJQsqaUBKTNV-1">
          <mxGeometry x="320" y="700" width="206" height="40" as="geometry" />
        </mxCell>
        <mxCell id="jJn-nuzKVyp3T1TOPXJk-30" value="" style="edgeStyle=orthogonalEdgeStyle;rounded=0;orthogonalLoop=1;jettySize=auto;html=1;strokeWidth=2;" edge="1" parent="WIyWlLk6GJQsqaUBKTNV-1" source="jJn-nuzKVyp3T1TOPXJk-26" target="jJn-nuzKVyp3T1TOPXJk-8">
          <mxGeometry relative="1" as="geometry" />
        </mxCell>
        <mxCell id="jJn-nuzKVyp3T1TOPXJk-26" value="" style="whiteSpace=wrap;html=1;aspect=fixed;strokeWidth=2;" vertex="1" parent="WIyWlLk6GJQsqaUBKTNV-1">
          <mxGeometry x="240" y="527" width="135" height="135" as="geometry" />
        </mxCell>
        <mxCell id="jJn-nuzKVyp3T1TOPXJk-31" value="" style="edgeStyle=orthogonalEdgeStyle;rounded=0;orthogonalLoop=1;jettySize=auto;html=1;strokeWidth=2;" edge="1" parent="WIyWlLk6GJQsqaUBKTNV-1" source="jJn-nuzKVyp3T1TOPXJk-27" target="jJn-nuzKVyp3T1TOPXJk-8">
          <mxGeometry relative="1" as="geometry" />
        </mxCell>
        <mxCell id="jJn-nuzKVyp3T1TOPXJk-27" value="" style="whiteSpace=wrap;html=1;aspect=fixed;strokeWidth=2;" vertex="1" parent="WIyWlLk6GJQsqaUBKTNV-1">
          <mxGeometry x="460" y="527" width="135" height="135" as="geometry" />
        </mxCell>
        <mxCell id="jJn-nuzKVyp3T1TOPXJk-29" style="edgeStyle=orthogonalEdgeStyle;rounded=0;orthogonalLoop=1;jettySize=auto;html=1;entryX=0.422;entryY=0;entryDx=0;entryDy=0;entryPerimeter=0;strokeWidth=2;" edge="1" parent="WIyWlLk6GJQsqaUBKTNV-1" source="jJn-nuzKVyp3T1TOPXJk-4" target="jJn-nuzKVyp3T1TOPXJk-26">
          <mxGeometry relative="1" as="geometry" />
        </mxCell>
        <mxCell id="jJn-nuzKVyp3T1TOPXJk-34" style="edgeStyle=orthogonalEdgeStyle;rounded=0;orthogonalLoop=1;jettySize=auto;html=1;entryX=0;entryY=0.5;entryDx=0;entryDy=0;strokeWidth=2;" edge="1" parent="WIyWlLk6GJQsqaUBKTNV-1" source="jJn-nuzKVyp3T1TOPXJk-32" target="jJn-nuzKVyp3T1TOPXJk-2">
          <mxGeometry relative="1" as="geometry" />
        </mxCell>
        <mxCell id="jJn-nuzKVyp3T1TOPXJk-36" style="edgeStyle=orthogonalEdgeStyle;rounded=0;orthogonalLoop=1;jettySize=auto;html=1;entryX=0;entryY=0.75;entryDx=0;entryDy=0;strokeWidth=2;" edge="1" parent="WIyWlLk6GJQsqaUBKTNV-1" source="jJn-nuzKVyp3T1TOPXJk-32" target="jJn-nuzKVyp3T1TOPXJk-1">
          <mxGeometry relative="1" as="geometry" />
        </mxCell>
        <mxCell id="jJn-nuzKVyp3T1TOPXJk-32" value="" style="rounded=0;whiteSpace=wrap;html=1;strokeWidth=2;" vertex="1" parent="WIyWlLk6GJQsqaUBKTNV-1">
          <mxGeometry x="50" y="460" width="70" height="210" as="geometry" />
        </mxCell>
        <mxCell id="jJn-nuzKVyp3T1TOPXJk-35" style="edgeStyle=orthogonalEdgeStyle;rounded=0;orthogonalLoop=1;jettySize=auto;html=1;entryX=1;entryY=0.5;entryDx=0;entryDy=0;strokeWidth=2;" edge="1" parent="WIyWlLk6GJQsqaUBKTNV-1" source="jJn-nuzKVyp3T1TOPXJk-33" target="jJn-nuzKVyp3T1TOPXJk-2">
          <mxGeometry relative="1" as="geometry" />
        </mxCell>
        <mxCell id="jJn-nuzKVyp3T1TOPXJk-37" style="edgeStyle=orthogonalEdgeStyle;rounded=0;orthogonalLoop=1;jettySize=auto;html=1;entryX=1;entryY=0.5;entryDx=0;entryDy=0;strokeWidth=2;" edge="1" parent="WIyWlLk6GJQsqaUBKTNV-1" source="jJn-nuzKVyp3T1TOPXJk-33" target="jJn-nuzKVyp3T1TOPXJk-1">
          <mxGeometry relative="1" as="geometry" />
        </mxCell>
        <mxCell id="jJn-nuzKVyp3T1TOPXJk-33" value="" style="rounded=0;whiteSpace=wrap;html=1;strokeWidth=2;fontFamily=Times New Roman;" vertex="1" parent="WIyWlLk6GJQsqaUBKTNV-1">
          <mxGeometry x="720" y="452" width="70" height="210" as="geometry" />
        </mxCell>
        <mxCell id="jJn-nuzKVyp3T1TOPXJk-39" value="&lt;h6&gt;&lt;span style=&quot;font-size: 16px;&quot;&gt;&lt;font face=&quot;Times New Roman&quot;&gt;Supervisior&amp;nbsp;&lt;/font&gt;&lt;/span&gt;&lt;/h6&gt;&lt;h6&gt;&lt;span style=&quot;font-size: 16px;&quot;&gt;&lt;font face=&quot;Z9bq7eHA2BslF8QC02er&quot;&gt;Conclusion&lt;/font&gt;&lt;/span&gt;&lt;/h6&gt;" style="text;html=1;align=center;verticalAlign=middle;whiteSpace=wrap;rounded=0;direction=south;flipV=0;rotation=-90;" vertex="1" parent="WIyWlLk6GJQsqaUBKTNV-1">
          <mxGeometry x="648.88" y="530.88" width="194" height="48.25" as="geometry" />
        </mxCell>
      </root>
    </mxGraphModel>
  </diagram>
</mxfile>
